<mxfile host="65bd71144e">
    <diagram id="_LNg-fWbcSvZYxjvN4BA" name="Page-1">
        <mxGraphModel dx="1239" dy="806" grid="1" gridSize="10" guides="1" tooltips="1" connect="1" arrows="1" fold="1" page="1" pageScale="1" pageWidth="3300" pageHeight="4681" math="0" shadow="0">
            <root>
                <mxCell id="0"/>
                <mxCell id="1" parent="0"/>
                <mxCell id="6" value="" style="html=1;" edge="1" parent="1" source="4" target="5">
                    <mxGeometry relative="1" as="geometry"/>
                </mxCell>
                <mxCell id="8" value="" style="edgeStyle=none;html=1;entryX=0;entryY=0.5;entryDx=0;entryDy=0;" edge="1" parent="1" source="4" target="7">
                    <mxGeometry relative="1" as="geometry">
                        <Array as="points"/>
                    </mxGeometry>
                </mxCell>
                <mxCell id="17" value="" style="edgeStyle=none;html=1;entryX=0;entryY=0.5;entryDx=0;entryDy=0;" edge="1" parent="1" source="4" target="16">
                    <mxGeometry relative="1" as="geometry"/>
                </mxCell>
                <mxCell id="4" value="LTDK" style="whiteSpace=wrap;html=1;aspect=fixed;" vertex="1" parent="1">
                    <mxGeometry x="230" y="2050" width="80" height="80" as="geometry"/>
                </mxCell>
                <mxCell id="14" value="" style="edgeStyle=none;html=1;" edge="1" parent="1" source="5" target="13">
                    <mxGeometry relative="1" as="geometry"/>
                </mxCell>
                <mxCell id="5" value="Tình điều kiện của K để hệ thống ổn định" style="whiteSpace=wrap;html=1;" vertex="1" parent="1">
                    <mxGeometry x="620" y="2060" width="270" height="60" as="geometry"/>
                </mxCell>
                <mxCell id="10" value="" style="edgeStyle=none;html=1;" edge="1" parent="1" source="7" target="9">
                    <mxGeometry relative="1" as="geometry"/>
                </mxCell>
                <mxCell id="12" value="" style="edgeStyle=none;html=1;" edge="1" parent="1" source="7" target="11">
                    <mxGeometry relative="1" as="geometry"/>
                </mxCell>
                <mxCell id="7" value="Tìm hàm truyền từ sơ đồ khối&amp;nbsp;" style="whiteSpace=wrap;html=1;" vertex="1" parent="1">
                    <mxGeometry x="620" y="1820" width="270" height="60" as="geometry"/>
                </mxCell>
                <mxCell id="9" value="Dùng công thức Mason" style="whiteSpace=wrap;html=1;" vertex="1" parent="1">
                    <mxGeometry x="1070" y="1750" width="270" height="60" as="geometry"/>
                </mxCell>
                <mxCell id="11" value="Viết phương trình đặc trưng theo biến phức" style="whiteSpace=wrap;html=1;" vertex="1" parent="1">
                    <mxGeometry x="1070" y="1860" width="270" height="60" as="geometry"/>
                </mxCell>
                <mxCell id="13" value="Dùng phương pháp Routh" style="whiteSpace=wrap;html=1;" vertex="1" parent="1">
                    <mxGeometry x="1070" y="2060" width="270" height="60" as="geometry"/>
                </mxCell>
                <mxCell id="16" value="Thiết kế bộ điều kiển G&lt;sub&gt;e&lt;/sub&gt;(s)" style="whiteSpace=wrap;html=1;" vertex="1" parent="1">
                    <mxGeometry x="620" y="2240" width="270" height="60" as="geometry"/>
                </mxCell>
            </root>
        </mxGraphModel>
    </diagram>
</mxfile>